<svg width="35" height="26" viewBox="0 0 35 26" fill="none" xmlns="http://www.w3.org/2000/svg">
<path d="M1.99561 6.63379C2.92797 6.56245 3.844 6.21454 4.75783 6.03274C6.97503 5.59163 9.17475 5.01484 11.4044 4.64173C13.0958 4.35869 14.8068 4.33673 16.4973 4.04067C18.315 3.72233 20.1161 3.39696 21.9527 3.18202C25.5657 2.75921 29.1815 1.9246 32.8117 1.84253C33.0314 1.83756 33.7803 1.49703 33.7008 1.77384C33.5917 2.15363 33.3085 2.30286 33.1052 2.61531C31.8519 4.54211 30.8913 6.63635 29.4884 8.49706C28.9829 9.16749 28.4597 9.91114 28.0124 10.6179C27.6441 11.1997 27.4149 11.9506 26.9247 12.4383C25.5232 13.8324 24.0675 15.2748 22.885 16.8431C21.3916 18.8238 19.5699 20.5952 17.9388 22.4673C17.3819 23.1066 16.8711 23.83 16.2901 24.4078" stroke="black" stroke-width="2.5184" stroke-linecap="round"/>
<path d="M16.4099 24.4414C15.6362 24.4818 14.4759 25.1901 13.9167 24.2177C13.5763 23.6257 13.232 23.0363 12.8259 22.4628C11.9576 21.2367 11.6118 19.9413 11.3369 18.497C11.1885 17.7178 10.6443 16.8509 10.6443 16.0797" stroke="black" stroke-width="2.5184" stroke-linecap="round"/>
<path d="M2.31604 7.43121C2.39121 7.98635 3.73414 8.32231 4.04218 8.76175C4.3039 9.13512 5.16102 9.44495 5.59036 9.64877C6.64708 10.1504 7.63066 10.7711 8.72232 11.275" stroke="black" stroke-width="2.5184" stroke-linecap="round"/>
<path d="M10.6443 16.0797C10.7394 15.2414 12.1404 14.3003 12.7352 13.7176C13.5475 12.922 14.5507 12.0064 15.4846 11.373C16.7499 10.515 17.4735 9.31582 18.6521 8.39215" stroke="black" stroke-width="2.5184" stroke-linecap="round"/>
<path d="M18.652 8.39215C17.6298 8.39215 16.6363 8.76956 15.7918 9.37089C14.7636 10.1031 13.5671 10.4569 12.3981 10.8657C11.3894 11.2184 10.4202 11.9156 9.36292 11.9156" stroke="black" stroke-width="2.5184" stroke-linecap="round"/>
</svg>
