<svg width="31" height="23" viewBox="0 0 31 23" fill="none" xmlns="http://www.w3.org/2000/svg">
<path d="M2.16199 2.29895C3.05882 2.38121 4.16328 3.52934 4.83306 4.10117C7.23825 6.15461 9.24977 8.78902 11.4862 11.0455C13.3629 12.9391 15.2659 14.7766 17.1397 16.6671C18.3709 17.9094 19.6641 19.0399 21.048 20.1062C21.5425 20.4872 22.0486 21.0427 22.6621 21.1975" stroke="black" stroke-width="2.5184" stroke-linecap="round"/>
<path d="M2.16199 1.97858H8.24796" stroke="black" stroke-width="2.5184" stroke-linecap="round"/>
<path d="M7.92773 1.65833C8.23505 1.69625 8.71019 2.25928 9.0679 2.40053C9.84637 2.70793 10.478 3.4153 11.1169 3.93389C12.3234 4.91316 13.4655 5.95853 14.6861 6.9272C17.6509 9.28012 20.5245 11.7558 23.3943 14.2025C24.5358 15.1757 25.3131 16.4747 26.443 17.3671C27.2246 17.9843 27.9126 18.7257 28.7482 19.2756" stroke="black" stroke-width="2.5184" stroke-linecap="round"/>
<path d="M28.7482 19.2756C29.2054 19.307 29.3558 19.7101 29.7091 19.9162" stroke="black" stroke-width="2.5184" stroke-linecap="round"/>
<path d="M22.3418 21.1975C24.79 21.1975 27.2486 20.8771 29.709 20.8771" stroke="black" stroke-width="2.5184" stroke-linecap="round"/>
<path d="M18.8185 9.98643C19.5569 9.33163 20.5771 8.87852 21.3858 8.30626C22.754 7.33802 24.1831 6.50116 25.6211 5.64736C26.9279 4.87136 28.6498 3.99624 29.7092 2.93951" stroke="black" stroke-width="2.5184" stroke-linecap="round"/>
<path d="M13.0528 13.1896C12.9981 13.7788 12.078 14.4754 11.7181 14.9007C10.9868 15.7648 10.0755 16.3013 9.30307 17.0737C8.68396 17.6928 7.96729 18.1571 7.4441 18.8875C6.7956 19.7928 5.92552 20.7233 5.04492 21.1974" stroke="black" stroke-width="2.5184" stroke-linecap="round"/>
</svg>
